*******************************************************************************
*            Lafangey Parindey (2010 - Hindi) 1CD Scam Rip Xvid {DCR}         *
*******************************************************************************
-------------------------------------------------------------------------------
                             *General Information*
-------------------------------------------------------------------------------

Movie Reviews :

Directed by 	Pradeep Sarkar
Produced by 	Aditya Chopra
Written by 	Gopi Puthran
Starring 	Neil Nitin Mukesh, Deepika Padukone
Music by 	R Anandh
Cinematography 	Natarajan Subramanian
Editing by 	Sanjib Datta
Studio 	        Yash Raj Films
Distributed by 	Yash Raj Films
Release date(s) August 20, 2010 (2010-08-20)
Country 	India
Language 	Hindi

Lafangey Parindey is a 2010 Hindi language film directed by Pradeep Sarkar, produced by Aditya Chopra and starring Neil Nitin Mukesh and Deepika Padukone, sister of Chaitanya Viswanatha who is a close friend of Indian Idol 5 winner Sreeram Chandra in the lead roles. The film was released on 20 August 2010 under the Yash Raj Films banner

-------------------------------------------------------------------------------
                                *Media Nfo.*
-------------------------------------------------------------------------------

Format                           : AVI
Format profile                   : OpenDML
File size                        : 672 MiB
Duration                         : 1h 47mn
Overall bit rate                 : 872 Kbps
Writing application              : AVI-Mux GUI 1.17.8.3, Feb 16 201019:42:50

Video
ID                               : 0
Format                           : MPEG-4 Visual
Format profile                   : Advanced Simple@L5
Format settings, BVOP            : Yes
Format settings, QPel            : No
Format settings, GMC             : No warppoints
Format settings, Matrix          : Default (H.263)
Codec ID                         : XVID
Codec ID/Hint                    : XviD
Duration                         : 1h 47mn
Bit rate                         : 740 Kbps
Width                            : 608 pixels
Height                           : 272 pixels
Display aspect ratio             : 2.25:1
Frame rate                       : 25.000 fps
Color space                      : YUV
Chroma subsampling               : 4:2:0
Bit depth                        : 8 bits
Scan type                        : Progressive
Bits/(Pixel*Frame)               : 0.179
Stream size                      : 571 MiB (85%)
Writing library                  : XviD 1.2.1 (UTC 2008-12-04)

Audio
ID                               : 1
Format                           : MPEG Audio
Format version                   : Version 1
Format profile                   : Layer 3
Mode                             : Joint stereo
Mode extension                   : MS Stereo
Codec ID                         : 55
Codec ID/Hint                    : MP3
Duration                         : 1h 47mn
Bit rate mode                    : Constant
Bit rate                         : 128 Kbps
Channel(s)                       : 2 channels
Sampling rate                    : 48.0 KHz
Stream size                      : 98.7 MiB (15%)
Alignment                        : Aligned on interleaves
Interleave, duration             : 921 ms (23.02 video frames)
Interleave, preload duration     : 216 ms
Title                            : LAFANGE PARINDE Tc0 L2 2ch 48 96 DELAY 0ms
Writing library                  : LAME3.98r
Encoding settings                : -m j -V 4 -q 2 -lowpass 17 -b 128

-------------------------------------------------------------------------------
                              *Post Information*
-------------------------------------------------------------------------------
Posted by............: Best Desi Uploader

-------------------------------------------------------------------------------
                                *Releaser Notes*
-------------------------------------------------------------------------------
1. Torrent Uploaded By DjMaster [BDU]
2. Please DON'T Forget For Seed.
3. Thank You!

-------------------------------------------------------------------------------	
